<?xml version="1.0" encoding="UTF-8"?>
<!DOCTYPE svg PUBLIC "-//W3C//DTD SVG 1.1//EN" "http://www.w3.org/Graphics/SVG/1.1/DTD/svg11.dtd">
<svg xmlns="http://www.w3.org/2000/svg" version="1.1" width="600px" height="350px" style="shape-rendering:geometricPrecision; text-rendering:geometricPrecision; image-rendering:optimizeQuality; fill-rule:evenodd; clip-rule:evenodd" xmlns:xlink="http://www.w3.org/1999/xlink">
<g><path style="opacity:1" fill="#fefefe" d="M -0.5,-0.5 C 199.5,-0.5 399.5,-0.5 599.5,-0.5C 599.5,116.167 599.5,232.833 599.5,349.5C 399.5,349.5 199.5,349.5 -0.5,349.5C -0.5,232.833 -0.5,116.167 -0.5,-0.5 Z"/></g>
<g><path style="opacity:1" fill="#f4fedc" d="M 261.5,22.5 C 191.499,22.3333 121.499,22.5 51.5,23C 50.944,23.3826 50.6107,23.8826 50.5,24.5C 49.391,24.5569 48.391,24.8902 47.5,25.5C 48.8282,23.3411 50.6615,21.6745 53,20.5C 122.65,21.1586 192.15,21.8253 261.5,22.5 Z"/></g>
<g><path style="opacity:1" fill="#defefe" d="M 284.5,22.5 C 354.668,21.1682 425.001,21.1682 495.5,22.5C 495.863,23.1835 496.196,23.8501 496.5,24.5C 495.078,24.2914 493.745,23.7914 492.5,23C 423.167,22.5 353.834,22.3333 284.5,22.5 Z"/></g>
<g><path style="opacity:1" fill="#93bc5e" d="M 261.5,22.5 C 263.555,23.5588 264.889,25.2254 265.5,27.5C 265.167,27.5 264.833,27.5 264.5,27.5C 263.264,25.1725 261.264,24.0058 258.5,24C 189.126,23.1734 119.793,23.3401 50.5,24.5C 50.6107,23.8826 50.944,23.3826 51.5,23C 121.499,22.5 191.499,22.3333 261.5,22.5 Z"/></g>
<g><path style="opacity:1" fill="#0f928c" d="M 284.5,22.5 C 353.834,22.3333 423.167,22.5 492.5,23C 493.745,23.7914 495.078,24.2914 496.5,24.5C 497.167,25.8333 497.833,27.1667 498.5,28.5C 499.827,98.7913 499.827,169.125 498.5,239.5C 497.167,240.167 496.167,241.167 495.5,242.5C 424.571,243.497 353.571,243.83 282.5,243.5C 281.5,241.833 280.167,240.5 278.5,239.5C 277.507,169.541 277.173,99.5413 277.5,29.5C 278.558,28.3998 279.392,27.0664 280,25.5C 281.652,24.6006 283.152,23.6006 284.5,22.5 Z"/></g>
<g><path style="opacity:1" fill="#8cc53e" d="M 264.5,27.5 C 262.846,98.129 261.846,168.796 261.5,239.5C 260.837,237.958 260.17,236.291 259.5,234.5C 258.24,236.353 258.24,238.186 259.5,240C 258.906,240.464 258.239,240.631 257.5,240.5C 257.719,239.325 257.386,238.325 256.5,237.5C 192.144,239.16 127.811,240.16 63.5,240.5C 59.351,239.92 55.6843,240.586 52.5,242.5C 51.3951,241.4 50.0618,240.733 48.5,240.5C 48.1667,240.5 47.8333,240.5 47.5,240.5C 46.8902,239.609 46.5569,238.609 46.5,237.5C 46.1733,167.459 46.5066,97.4587 47.5,27.5C 47.5,26.8333 47.5,26.1667 47.5,25.5C 48.391,24.8902 49.391,24.5569 50.5,24.5C 119.793,23.3401 189.126,23.1734 258.5,24C 261.264,24.0058 263.264,25.1725 264.5,27.5 Z"/></g>
<g><path style="opacity:1" fill="#fafeee" d="M 47.5,25.5 C 47.5,26.1667 47.5,26.8333 47.5,27.5C 46.8826,27.6107 46.3826,27.944 46,28.5C 45.5,97.8325 45.3333,167.166 45.5,236.5C 44.3345,167.001 44.1679,97.3345 45,27.5C 45.4169,26.244 46.2502,25.5774 47.5,25.5 Z"/></g>
<g><path style="opacity:1" fill="#92bc5a" d="M 47.5,27.5 C 46.5066,97.4587 46.1733,167.459 46.5,237.5C 45.8333,237.5 45.5,237.167 45.5,236.5C 45.3333,167.166 45.5,97.8325 46,28.5C 46.3826,27.944 46.8826,27.6107 47.5,27.5 Z"/></g>
<g><path style="opacity:1" fill="#8ec344" d="M 264.5,27.5 C 264.833,27.5 265.167,27.5 265.5,27.5C 265.5,28.8333 265.5,30.1667 265.5,31.5C 264.335,98.9988 264.168,166.665 265,234.5C 265.383,233.944 265.883,233.611 266.5,233.5C 266.5,234.5 266.5,235.5 266.5,236.5C 266.5,237.5 266.5,238.5 266.5,239.5C 265.167,240.5 263.833,241.5 262.5,242.5C 262.167,242.5 261.833,242.5 261.5,242.5C 261.5,241.5 261.5,240.5 261.5,239.5C 261.846,168.796 262.846,98.129 264.5,27.5 Z"/></g>
<g><path style="opacity:1" fill="#89ca36" d="M 265.5,31.5 C 266.499,98.6646 266.832,165.998 266.5,233.5C 265.883,233.611 265.383,233.944 265,234.5C 264.168,166.665 264.335,98.9988 265.5,31.5 Z"/></g>
<g><path style="opacity:1" fill="#8ebf51" d="M 265.5,27.5 C 266.167,28.1667 266.833,28.8333 267.5,29.5C 267.833,98.6687 267.499,167.669 266.5,236.5C 266.5,235.5 266.5,234.5 266.5,233.5C 266.832,165.998 266.499,98.6646 265.5,31.5C 265.5,30.1667 265.5,28.8333 265.5,27.5 Z"/></g>
<g><path style="opacity:1" fill="#f9fee5" d="M 267.5,29.5 C 268.167,64.3317 268.5,99.3317 268.5,134.5C 268.5,169.84 267.833,204.84 266.5,239.5C 266.5,238.5 266.5,237.5 266.5,236.5C 267.499,167.669 267.833,98.6687 267.5,29.5 Z"/></g>
<g><path style="opacity:1" fill="#e9fffe" d="M 277.5,29.5 C 277.173,99.5413 277.507,169.541 278.5,239.5C 277.167,204.84 276.5,169.84 276.5,134.5C 276.5,99.3317 276.833,64.3317 277.5,29.5 Z"/></g>
<g><path style="opacity:1" fill="#eafefe" d="M 498.5,28.5 C 499.833,63.3269 500.5,98.4936 500.5,134C 500.5,169.506 499.833,204.673 498.5,239.5C 499.827,169.125 499.827,98.7913 498.5,28.5 Z"/></g>
<g><path style="opacity:1" fill="#f3fcdd" d="M 168.5,62.5 C 160.167,62.5 151.833,62.5 143.5,62.5C 151.828,59.9155 160.162,59.9155 168.5,62.5 Z"/></g>
<g><path style="opacity:1" fill="#fdfefb" d="M 143.5,62.5 C 151.833,62.5 160.167,62.5 168.5,62.5C 182.133,64.4837 194.133,69.9837 204.5,79C 205.448,79.4828 206.448,79.6495 207.5,79.5C 208.608,83.1311 210.774,86.1311 214,88.5C 217.764,94.3635 221.264,100.363 224.5,106.5C 228.96,119.512 230.293,132.846 228.5,146.5C 221.558,175.443 203.891,194.443 175.5,203.5C 161.419,206.377 147.419,206.044 133.5,202.5C 96.8262,187.19 80.6596,159.523 85,119.5C 92.9439,88.3866 112.444,69.3866 143.5,62.5 Z"/></g>
<g><path style="opacity:1" fill="#fcfdfd" d="M 326.5,63.5 C 330.846,63.3343 335.179,63.501 339.5,64C 368.055,93.8862 396.555,123.72 425,153.5C 425.5,123.502 425.667,93.5019 425.5,63.5C 433.5,63.5 441.5,63.5 449.5,63.5C 449.5,109.833 449.5,156.167 449.5,202.5C 445.818,202.665 442.152,202.499 438.5,202C 409.108,172.396 380.275,142.23 352,111.5C 351.5,141.832 351.333,172.165 351.5,202.5C 343.167,202.5 334.833,202.5 326.5,202.5C 326.5,156.167 326.5,109.833 326.5,63.5 Z"/></g>
<g><path style="opacity:1" fill="#94c057" d="M 167.5,86.5 C 159.5,86.5 151.5,86.5 143.5,86.5C 151.5,83.8333 159.5,83.8333 167.5,86.5 Z"/></g>
<g><path style="opacity:1" fill="#8cc53e" d="M 143.5,86.5 C 151.5,86.5 159.5,86.5 167.5,86.5C 184.535,90.0203 195.868,100.02 201.5,116.5C 203.046,128.264 202.712,139.931 200.5,151.5C 190.298,174.277 172.631,184.11 147.5,181C 127.862,176.695 115.362,164.862 110,145.5C 105.427,121.504 113.26,103.004 133.5,90C 136.605,88.1319 139.938,86.9652 143.5,86.5 Z"/></g>
<g><path style="opacity:1" fill="#90c24a" d="M 228.5,146.5 C 230.293,132.846 228.96,119.512 224.5,106.5C 227.227,109.933 228.727,113.933 229,118.5C 229.946,116.212 231.113,114.045 232.5,112C 232.043,111.586 231.709,111.086 231.5,110.5C 232.718,110.891 233.552,110.224 234,108.5C 234.257,104.623 235.257,100.957 237,97.5C 237.704,99.2784 238.204,101.112 238.5,103C 235.983,108.71 233.65,114.543 231.5,120.5C 230.869,129.358 229.869,138.025 228.5,146.5 Z"/></g>
<g><path style="opacity:1" fill="#96bf55" d="M 201.5,116.5 C 203.917,121.609 204.917,127.109 204.5,133C 205.11,139.714 203.776,145.88 200.5,151.5C 202.712,139.931 203.046,128.264 201.5,116.5 Z"/></g>
<g><path style="opacity:1" fill="#4d4d4f" d="M 528.5,170.5 C 544.175,169.856 553.175,177.189 555.5,192.5C 555.14,196.273 554.307,199.939 553,203.5C 544.5,214 536,224.5 527.5,235C 536.827,235.5 546.161,235.666 555.5,235.5C 555.5,238.167 555.5,240.833 555.5,243.5C 540.485,243.833 525.485,243.499 510.5,242.5C 522.552,227.622 534.385,212.622 546,197.5C 546.896,182.396 540.062,176.896 525.5,181C 521.773,183.955 519.773,187.788 519.5,192.5C 516.5,192.5 513.5,192.5 510.5,192.5C 511.803,181.183 517.803,173.85 528.5,170.5 Z"/></g>
<g><path style="opacity:1" fill="#93be59" d="M 133.5,202.5 C 147.419,206.044 161.419,206.377 175.5,203.5C 172.797,204.963 169.797,205.796 166.5,206C 158.833,206.667 151.167,206.667 143.5,206C 139.726,205.432 136.393,204.265 133.5,202.5 Z"/></g>
<g><path style="opacity:1" fill="#90c14b" d="M 257.5,240.5 C 192.833,240.5 128.167,240.5 63.5,240.5C 127.811,240.16 192.144,239.16 256.5,237.5C 257.386,238.325 257.719,239.325 257.5,240.5 Z"/></g>
<g><path style="opacity:1" fill="#88cb30" d="M 261.5,239.5 C 261.5,240.5 261.5,241.5 261.5,242.5C 191.833,242.5 122.167,242.5 52.5,242.5C 55.6843,240.586 59.351,239.92 63.5,240.5C 128.167,240.5 192.833,240.5 257.5,240.5C 258.239,240.631 258.906,240.464 259.5,240C 258.24,238.186 258.24,236.353 259.5,234.5C 260.17,236.291 260.837,237.958 261.5,239.5 Z"/></g>
<g><path style="opacity:1" fill="#92be58" d="M 48.5,240.5 C 50.0618,240.733 51.3951,241.4 52.5,242.5C 122.167,242.5 191.833,242.5 261.5,242.5C 261.833,242.5 262.167,242.5 262.5,242.5C 262.158,243.338 261.492,243.672 260.5,243.5C 190.499,243.667 120.499,243.5 50.5,243C 49.6195,242.292 48.9528,241.458 48.5,240.5 Z"/></g>
<g><path style="opacity:1" fill="#fafee8" d="M 47.5,240.5 C 47.8333,240.5 48.1667,240.5 48.5,240.5C 48.9528,241.458 49.6195,242.292 50.5,243C 120.499,243.5 190.499,243.667 260.5,243.5C 190.335,244.665 120.001,244.832 49.5,244C 48.0267,243.29 47.3601,242.124 47.5,240.5 Z"/></g>
<g><path style="opacity:1" fill="#ebfffe" d="M 495.5,242.5 C 460.34,243.833 424.84,244.5 389,244.5C 353.332,244.5 317.832,244.167 282.5,243.5C 353.571,243.83 424.571,243.497 495.5,242.5 Z"/></g>
<g><path style="opacity:1" fill="#5d5d5d" d="M 85.5,250.5 C 98.7395,248.945 107.739,254.278 112.5,266.5C 111.726,270.718 109.392,272.051 105.5,270.5C 102.774,262.718 97.2741,259.051 89,259.5C 79.1803,258.652 74.847,262.985 76,272.5C 76.7845,274.286 77.9512,275.786 79.5,277C 89.2544,281.042 98.9211,285.375 108.5,290C 114.212,295.669 116.045,302.503 114,310.5C 111.512,316.521 107.012,320.354 100.5,322C 84.4518,326.224 73.1184,320.891 66.5,306C 67.2314,301.746 69.5648,300.58 73.5,302.5C 78.9118,313.699 87.5784,317.199 99.5,313C 107.618,308.199 108.284,302.533 101.5,296C 93.3326,291.945 84.9993,288.278 76.5,285C 67.0787,278.105 64.912,269.272 70,258.5C 74.3613,254.071 79.5279,251.404 85.5,250.5 Z"/></g>
<g><path style="opacity:1" fill="#606060" d="M 375.5,252.5 C 378.482,252.104 381.149,252.771 383.5,254.5C 389.356,263.559 395.69,272.226 402.5,280.5C 409.367,271.282 416.367,262.115 423.5,253C 425.769,252.242 427.936,252.409 430,253.5C 431.146,264.74 431.646,276.074 431.5,287.5C 431.333,298.167 431.167,308.833 431,319.5C 428.822,323.065 426.156,323.399 423,320.5C 422.667,303.5 422.333,286.5 422,269.5C 417.333,276.167 412.667,282.833 408,289.5C 405.261,293.782 401.927,294.448 398,291.5C 393,283.833 388,276.167 383,268.5C 382.667,285.833 382.333,303.167 382,320.5C 379.925,322.648 377.592,322.982 375,321.5C 373.854,310.26 373.354,298.926 373.5,287.5C 373.667,276.833 373.833,266.167 374,255.5C 374.513,254.473 375.013,253.473 375.5,252.5 Z"/></g>
<g><path style="opacity:1" fill="#5c5c5c" d="M 247.5,252.5 C 264.837,252.333 282.17,252.5 299.5,253C 301.275,256.394 300.608,259.06 297.5,261C 290.842,261.5 284.175,261.666 277.5,261.5C 277.667,282.503 277.5,303.503 277,324.5C 273.904,327.353 271.237,327.02 269,323.5C 268.5,302.836 268.333,282.169 268.5,261.5C 261.825,261.666 255.158,261.5 248.5,261C 245.112,258.435 244.779,255.602 247.5,252.5 Z"/></g>
<g><path style="opacity:1" fill="#5c5c5c" d="M 312.5,252.5 C 327.504,252.333 342.504,252.5 357.5,253C 358.833,255.333 358.833,257.667 357.5,260C 345.171,260.5 332.838,260.667 320.5,260.5C 320.5,266.833 320.5,273.167 320.5,279.5C 331.838,279.333 343.172,279.5 354.5,280C 357.25,283.012 356.917,285.679 353.5,288C 342.505,288.5 331.505,288.667 320.5,288.5C 320.5,296.833 320.5,305.167 320.5,313.5C 332.838,313.333 345.171,313.5 357.5,314C 358.982,316.592 358.648,318.925 356.5,321C 341.837,321.5 327.17,321.667 312.5,321.5C 312.5,298.5 312.5,275.5 312.5,252.5 Z"/></g>
<g><path style="opacity:1" fill="#5d5d5d" d="M 205.5,250.5 C 217.806,249.071 226.639,253.737 232,264.5C 233.418,268.442 232.084,270.775 228,271.5C 226.739,271.241 225.739,270.574 225,269.5C 223.86,264.36 220.694,261.193 215.5,260C 211.5,259.333 207.5,259.333 203.5,260C 196.363,262.069 194.196,266.569 197,273.5C 198.5,275 200,276.5 201.5,278C 210.648,281.742 219.648,285.742 228.5,290C 237.46,298.963 237.793,308.296 229.5,318C 217.264,325.532 205.264,325.198 193.5,317C 190.362,313.858 188.028,310.192 186.5,306C 187.225,301.916 189.558,300.582 193.5,302C 199.854,314.232 209.521,317.565 222.5,312C 227.366,307.281 227.699,302.281 223.5,297C 214.874,292.188 205.874,288.188 196.5,285C 186.336,276.855 184.836,267.355 192,256.5C 196.12,253.414 200.62,251.414 205.5,250.5 Z"/></g>
<g><path style="opacity:1" fill="#5d5d5d" d="M 464.5,250.5 C 476.259,249.234 485.092,253.567 491,263.5C 492.421,267.43 491.254,270.097 487.5,271.5C 486.252,270.96 485.085,270.293 484,269.5C 482.86,264.36 479.694,261.193 474.5,260C 470.5,259.333 466.5,259.333 462.5,260C 455.363,262.069 453.196,266.569 456,273.5C 457.5,275 459,276.5 460.5,278C 468.5,281.333 476.5,284.667 484.5,288C 495.23,295.029 497.397,304.196 491,315.5C 485.042,321.211 477.876,323.877 469.5,323.5C 457.934,322.419 449.934,316.585 445.5,306C 446.225,301.916 448.558,300.582 452.5,302C 458.776,314.62 468.442,317.954 481.5,312C 486.366,307.281 486.699,302.281 482.5,297C 473.874,292.188 464.874,288.188 455.5,285C 446.355,278.238 444.188,269.738 449,259.5C 452.923,254.291 458.089,251.291 464.5,250.5 Z"/></g>
<g><path style="opacity:1" fill="#5c5c5c" d="M 126.5,252.5 C 129.365,252.055 131.865,252.722 134,254.5C 139.599,263.376 145.432,272.043 151.5,280.5C 157.497,271.657 163.33,262.657 169,253.5C 174.612,251.004 176.946,252.671 176,258.5C 169.583,269.003 162.916,279.337 156,289.5C 155.811,300.213 155.311,310.88 154.5,321.5C 152.305,322.769 150.139,322.769 148,321.5C 147.667,310.833 147.333,300.167 147,289.5C 140,279.167 133,268.833 126,258.5C 125.322,256.402 125.489,254.402 126.5,252.5 Z"/></g>
</svg>
